<svg xmlns="http://www.w3.org/2000/svg" class="sentence-picture" viewBox="0 0 400 320" role="img" aria-label="树木旁边有小花，小花下面有绿草。"><rect width="400" height="320" rx="24" fill="#e7eee0"></rect><path d="M0 226q110-30 217 0t183-2v96H0Z" fill="#c7d4ae"></path><circle cx="342" cy="46" r="23" fill="#f2d28a"></circle><path d="M26 53h79m-58-9h35" stroke="#fffaf0" stroke-width="14" stroke-linecap="round"></path><g transform="translate(118 202) scale(1.1)"><path d="M0 48V-90m0 62-30-30m30 47 33-34" stroke="#a08c68" stroke-width="14" fill="none" stroke-linecap="round"></path><g fill="#97b887"><circle cy="-98" r="49"></circle><circle cx="-32" cy="-66" r="39"></circle><circle cx="35" cy="-67" r="40"></circle></g><path d="M3-39h44" stroke="#a08c68" stroke-width="8" stroke-linecap="round"></path></g><g transform="translate(245 226)"><path d="M0 0v37m0-12-12-9m12 0 10-8" stroke="#799969" stroke-width="4"></path><g fill="#dfa18b"><circle cy="-9" r="9"></circle><circle cx="-9" r="9"></circle><circle cx="9" r="9"></circle><circle cy="9" r="9"></circle></g><circle r="6" fill="#f3d98b"></circle></g><g transform="translate(294 212)"><path d="M0 0v37m0-12-12-9m12 0 10-8" stroke="#799969" stroke-width="4"></path><g fill="#dfa18b"><circle cy="-9" r="9"></circle><circle cx="-9" r="9"></circle><circle cx="9" r="9"></circle><circle cy="9" r="9"></circle></g><circle r="6" fill="#f3d98b"></circle></g><g transform="translate(336 235)"><path d="M0 0v37m0-12-12-9m12 0 10-8" stroke="#799969" stroke-width="4"></path><g fill="#dfa18b"><circle cy="-9" r="9"></circle><circle cx="-9" r="9"></circle><circle cx="9" r="9"></circle><circle cy="9" r="9"></circle></g><circle r="6" fill="#f3d98b"></circle></g><path d="m215 290-5-18m5 18 7-23m-7 23 13-11" stroke="#7c9d62" stroke-width="4" fill="none" stroke-linecap="round"></path><path d="m240 290-5-18m5 18 7-23m-7 23 13-11" stroke="#7c9d62" stroke-width="4" fill="none" stroke-linecap="round"></path><path d="m266 290-5-18m5 18 7-23m-7 23 13-11" stroke="#7c9d62" stroke-width="4" fill="none" stroke-linecap="round"></path><path d="m292 290-5-18m5 18 7-23m-7 23 13-11" stroke="#7c9d62" stroke-width="4" fill="none" stroke-linecap="round"></path><path d="m319 290-5-18m5 18 7-23m-7 23 13-11" stroke="#7c9d62" stroke-width="4" fill="none" stroke-linecap="round"></path><path d="m345 290-5-18m5 18 7-23m-7 23 13-11" stroke="#7c9d62" stroke-width="4" fill="none" stroke-linecap="round"></path></svg>