<svg xmlns="http://www.w3.org/2000/svg" viewBox="0 0 600 420"><rect width="600" height="420" rx="26" fill="#dbe8dc"/><circle cx="525" cy="55" r="25" fill="#edcb7e"/><path d="M0 315Q140 250 290 315T600 300V420H0" fill="#b9cea9"/><path d="M50 310V180M50 250L24 223M50 230L79 202" stroke="#9e8b65" stroke-width="9"/><circle cx="50" cy="164" r="43" fill="#91b58a"/><path d="M470 320V219H556V320" fill="#faf2d9"/><path d="M452 219L513 167L574 219Z" fill="#c79379"/><path d="M503 320V266Q513 249 526 266V320" fill="#96ac99"/><text x="300" y="53" text-anchor="middle" font-family="sans-serif" font-size="24" fill="#46594c">走进教室</text><rect x="85" y="83" width="135" height="108" rx="16" fill="#fffaf0"/><text x="152" y="131" text-anchor="middle" font-size="32">🎒</text><text x="152" y="168" text-anchor="middle" font-family="sans-serif" font-size="20" fill="#46594c">学校</text><rect x="240" y="83" width="135" height="108" rx="16" fill="#fffaf0"/><text x="307" y="131" text-anchor="middle" font-size="32">🎒</text><text x="307" y="168" text-anchor="middle" font-family="sans-serif" font-size="20" fill="#46594c">班级</text><rect x="395" y="83" width="135" height="108" rx="16" fill="#fffaf0"/><text x="462" y="131" text-anchor="middle" font-size="32">🎒</text><text x="462" y="168" text-anchor="middle" font-family="sans-serif" font-size="20" fill="#46594c">上课</text><rect x="85" y="213" width="135" height="108" rx="16" fill="#fffaf0"/><text x="152" y="261" text-anchor="middle" font-size="32">🎒</text><text x="152" y="298" text-anchor="middle" font-family="sans-serif" font-size="20" fill="#46594c">教室</text><rect x="240" y="213" width="135" height="108" rx="16" fill="#fffaf0"/><text x="307" y="261" text-anchor="middle" font-size="32">🎒</text><text x="307" y="298" text-anchor="middle" font-family="sans-serif" font-size="20" fill="#46594c">桌子</text></svg>