<svg xmlns="http://www.w3.org/2000/svg" class="sentence-picture" viewBox="0 0 400 320" role="img" aria-label="大树上有小鸟，大树下有小猫。"><rect width="400" height="320" rx="24" fill="#e7eee0"></rect><path d="M0 226q110-30 217 0t183-2v96H0Z" fill="#c7d4ae"></path><circle cx="342" cy="46" r="23" fill="#f2d28a"></circle><path d="M26 53h79m-58-9h35" stroke="#fffaf0" stroke-width="14" stroke-linecap="round"></path><g transform="translate(194 212) scale(1.2)"><path d="M0 48V-90m0 62-30-30m30 47 33-34" stroke="#a08c68" stroke-width="14" fill="none" stroke-linecap="round"></path><g fill="#97b887"><circle cy="-98" r="49"></circle><circle cx="-32" cy="-66" r="39"></circle><circle cx="35" cy="-67" r="40"></circle></g><path d="M3-39h44" stroke="#a08c68" stroke-width="8" stroke-linecap="round"></path></g><g transform="translate(239 141) scale(1.05)"><path d="m-12 7-17-10 7 20" fill="#7e9fab"></path><ellipse cy="10" rx="20" ry="14" fill="#91b2bd"></ellipse><circle cx="11" cy="-1" r="12" fill="#91b2bd"></circle><path d="m22-2 11 5-11 4" fill="#dab66d"></path><circle cx="15" cy="-3" r="2" fill="#4b5d58"></circle><path d="m-8 8q12-7 15 5" stroke="#638895" fill="none" stroke-width="3"></path><path d="m-3 24v7m9-7v7" stroke="#a39063" stroke-width="2"></path></g><g transform="translate(193 269) scale(0.8)"><ellipse cx="12" cy="19" rx="31" ry="22" fill="#f6e5bc"></ellipse><path d="M35 23q31-11 20-34" fill="none" stroke="#f6e5bc" stroke-width="10" stroke-linecap="round"></path><path d="m-22-2 1-26 17 13L13-27 18 0Z" fill="#f6e5bc"></path><circle cx="-2" cy="-1" r="23" fill="#f6e5bc"></circle><path d="m-12-2 1 0m13 0 1 0" stroke="#82765c" stroke-width="3" stroke-linecap="round"></path><path d="m-6 7 8 0-4 4Z" fill="#ce9f86"></path><path d="m-22 5-12-3m12 9-12 3m48-9 12-3m-12 9 12 3" stroke="#a49b7c" stroke-width="1.5"></path></g></svg>